<?xml version="1.0" encoding="UTF-8"?>
<svg version="1.1" xmlns="http://www.w3.org/2000/svg" width="426" height="299">
<path d="M0 0 C140.58 0 281.16 0 426 0 C426 98.67 426 197.34 426 299 C285.42 299 144.84 299 0 299 C0 200.33 0 101.66 0 0 Z " fill="#E2E4E3" transform="translate(0,0)"/>
<path d="M0 0 C3 0.25 3 0.25 5 2.25 C5.6041269 9.95261803 4.10969161 17.64068611 3 25.25 C4.17755859 25.48783203 4.17755859 25.48783203 5.37890625 25.73046875 C12.06086682 27.21443791 16.80412333 28.74690689 22 33.25 C26.18777222 41.62554443 22.40976644 56.44128274 21.09146118 65.42254639 C20.73968738 67.82029244 20.40085633 70.21957831 20.06518555 72.61962891 C19.60430123 75.91134627 19.139515 79.2024693 18.67138672 82.49316406 C16.41217365 98.43301066 14.22216259 114.38603646 12.9375 130.4375 C12.33437678 137.8117561 11.64567155 145.16244061 10.6875 152.5 C10.5939624 153.34071045 10.5004248 154.1814209 10.40405273 155.04760742 C9.60372726 160.73282106 9.60372726 160.73282106 6.765625 163.1640625 C3.87556732 164.29885916 1.01451431 165.40999146 -1.9375 166.375 C-3.43603516 166.87386719 -3.43603516 166.87386719 -4.96484375 167.3828125 C-19.21766259 171.45504645 -32.88008718 169.7734791 -46.2421875 163.80078125 C-49 162.25 -49 162.25 -51 159.25 C-51.39135742 156.78808594 -51.39135742 156.78808594 -51.60546875 153.734375 C-51.69844238 152.53345215 -51.79141602 151.3325293 -51.88720703 150.09521484 C-51.93540588 149.43398621 -51.98360474 148.77275757 -52.03326416 148.0914917 C-52.98303443 135.21227603 -54.27722327 122.37200556 -55.71484375 109.5390625 C-55.79213148 108.8487796 -55.86941921 108.1584967 -55.949049 107.44729614 C-56.73670836 100.42489817 -57.53518173 93.40375908 -58.34070396 86.38338947 C-59.87240559 73.01461494 -61.37755329 59.69591291 -62 46.25 C-62.07943848 45.07155518 -62.15887695 43.89311035 -62.24072266 42.67895508 C-62.71744556 35.12887082 -62.71744556 35.12887082 -59.5 31.1875 C-44.89615109 21.88367567 -25.55643059 22.79953203 -9 23.25 C-8.86464844 22.07179687 -8.72929687 20.89359375 -8.58984375 19.6796875 C-8.11069052 15.85825105 -7.41581588 12.13312695 -6.5625 8.375 C-6.31628906 7.26382813 -6.07007813 6.15265625 -5.81640625 5.0078125 C-4.69019025 1.20346563 -4.0036194 0.33363495 0 0 Z " fill="#232021" transform="translate(222,113.75)"/>
<path d="M0 0 C1.0209375 0.19335938 2.041875 0.38671875 3.09375 0.5859375 C11.48917948 2.32370113 18.71939975 5.98700263 26.20654297 10.03173828 C27.72309098 10.85050079 29.25278541 11.64484186 30.78515625 12.43359375 C38.00752766 16.39121841 43.72386674 21.9490036 49.59326172 27.64453125 C50.73181763 28.74159172 51.89549203 29.81254476 53.06640625 30.875 C66.84211721 43.65988257 77.41613566 64.46140051 80 83 C80.17660156 84.19882813 80.35320312 85.39765625 80.53515625 86.6328125 C84.10418125 116.33732777 77.78502806 144.85030938 59.8046875 168.94140625 C52.97767057 177.49301805 45.6771037 184.99996706 36.875 191.5 C36.30112549 191.9338501 35.72725098 192.3677002 35.13598633 192.81469727 C31.14041053 195.66345306 27.89197834 196.76647839 23 197 C21.0625 195.9375 21.0625 195.9375 20 194 C19.5625 191.0625 19.5625 191.0625 20 188 C22.72658122 184.86599859 25.86117532 182.56451846 29.25 180.1875 C49.36039276 165.64409014 62.71388412 145.17627908 67.2265625 120.6328125 C69.42572867 106.31579192 68.80391692 91.97525999 65 78 C64.74476563 77.00355469 64.48953125 76.00710937 64.2265625 74.98046875 C60.451946 62.04634708 52.95126645 49.97693239 44 40 C43.484375 39.40316406 42.96875 38.80632812 42.4375 38.19140625 C26.84541998 21.31297963 3.73562047 11.2983583 -18.99243164 9.87524414 C-29.74529352 9.47421374 -39.54289787 10.32167763 -50 13 C-51.07507813 13.25523438 -52.15015625 13.51046875 -53.2578125 13.7734375 C-67.19111583 17.504961 -79.4122424 25.3464563 -90 35 C-90.72703125 35.65742187 -91.4540625 36.31484375 -92.203125 36.9921875 C-108.4496634 52.43259994 -118.41090768 74.57050389 -119.40234375 96.8515625 C-119.64119386 108.13972622 -119.06089329 118.10219 -116 129 C-115.59797956 130.76943898 -115.20124894 132.54009796 -114.8125 134.3125 C-111.78336266 145.27131625 -105.42333259 155.49218879 -98 164 C-97.24976563 164.89332031 -96.49953125 165.78664062 -95.7265625 166.70703125 C-90.80077298 172.38645103 -85.74977657 177.00126063 -79.54296875 181.24609375 C-76.8953895 183.07215072 -74.36640513 184.81660822 -72 187 C-72.06886865 190.99438174 -72.1314229 193.1314229 -75 196 C-79.153879 196.81051298 -81.66572901 195.86602456 -85.125 193.6875 C-91.22048631 189.32043179 -96.65060766 184.23174723 -102 179 C-102.94359375 178.0821875 -103.8871875 177.164375 -104.859375 176.21875 C-123.03634151 157.52830986 -133.42512836 130.69472998 -133.5 104.625 C-133.33846514 95.91671394 -131.82840626 87.49269075 -130 79 C-129.80664062 77.96617188 -129.61328125 76.93234375 -129.4140625 75.8671875 C-126.55187223 62.22531957 -119.66484543 49.7802862 -111 39 C-110.01 37.69095703 -110.01 37.69095703 -109 36.35546875 C-104.78742477 30.86760219 -100.38434957 26.32407526 -95 22 C-94.1234375 21.24074219 -93.246875 20.48148438 -92.34375 19.69921875 C-66.33876739 -1.84872432 -32.37418243 -7.53051635 0 0 Z " fill="#242021" transform="translate(228,49)"/>
<path d="M0 0 C15.75973345 11.90047754 25.83193994 27.204495 29.26025391 46.76757812 C30.73307698 64.58500867 28.33913734 81.55234063 18.26025391 96.76757812 C14.02592371 100.62173626 14.02592371 100.62173626 10.63525391 101.26757812 C8.26025391 100.76757812 8.26025391 100.76757812 6.38525391 99.14257812 C4.84766313 95.89655315 5.43022666 94.2453923 6.26025391 90.76757812 C7.31545616 88.48401223 8.44650978 86.23456085 9.63525391 84.01757812 C16.57821903 70.46739829 18.89136122 56.75316569 14.63525391 41.83007812 C9.29261047 27.01215416 0.02778204 13.78426295 -14.56542969 6.90722656 C-30.48263648 -0.10124324 -45.12488208 -1.51356583 -61.57958984 4.86914062 C-77.63742719 11.69757626 -88.01936284 23.6958445 -94.57568359 39.63085938 C-98.74059405 50.85375566 -98.48077496 65.91300149 -94.09912109 76.99414062 C-91.95391529 81.37085362 -89.56375001 85.59529951 -87.03271484 89.75976562 C-85.50017429 93.32489017 -85.63383442 95.08819425 -86.73974609 98.76757812 C-88.73974609 100.76757812 -88.73974609 100.76757812 -92.48974609 101.01757812 C-95.36025607 100.56597891 -96.46553503 100.07360022 -98.42333984 97.88867188 C-109.01910775 80.7427929 -113.04168889 60.65107057 -109.08740234 40.73632812 C-108.18306165 37.60024537 -107.0818494 34.74110041 -105.73974609 31.76757812 C-105.28857422 30.64867187 -104.83740234 29.52976563 -104.37255859 28.37695312 C-98.48847125 15.08652698 -88.28812754 4.10925269 -75.73974609 -3.23242188 C-75.10037109 -3.61527344 -74.46099609 -3.998125 -73.80224609 -4.39257812 C-50.91721482 -16.93166818 -21.22284891 -15.03409224 0 0 Z " fill="#232021" transform="translate(242.73974609375,95.232421875)"/>
<path d="M0 0 C1.670625 0.2165625 1.670625 0.2165625 3.375 0.4375 C4.91639311 0.62723575 6.45807901 0.81460311 8 1 C8.72735352 1.08813965 9.45470703 1.1762793 10.20410156 1.26708984 C16.93660023 2.01372309 23.60475219 2.18336171 30.375 2.1875 C31.94507813 2.20586914 31.94507813 2.20586914 33.546875 2.22460938 C39.98072 2.2365239 46.01378467 1.66454488 52.33056641 0.4309082 C54.93914293 0.00982374 57.36316909 -0.07558557 60 0 C59.8604947 3.39612414 59.71227678 6.79181458 59.5625 10.1875 C59.52318359 11.14720703 59.48386719 12.10691406 59.44335938 13.09570312 C59.38051758 14.49272461 59.38051758 14.49272461 59.31640625 15.91796875 C59.27974854 16.77156982 59.24309082 17.6251709 59.20532227 18.50463867 C58.99468906 21.06454594 58.55158464 23.49333243 58 26 C56.69289063 26.02126953 56.69289063 26.02126953 55.359375 26.04296875 C45.35383816 26.44362336 37.5499864 28.71531417 28.9375 33.8125 C22.26376406 36.51039325 15.26339442 35.58797285 8.5 33.5 C5.03247083 31.67191143 3.38696954 30.2158917 2.18554688 26.44091797 C0.42927454 17.74567578 -0.06021477 8.85658916 0 0 Z " fill="#DFE1E0" transform="translate(172,165)"/>
<path d="M0 0 C1.13824219 0.01353516 2.27648437 0.02707031 3.44921875 0.04101562 C6.21666987 0.07589946 8.98306105 0.12490683 11.75 0.1875 C11.42 2.8275 11.09 5.4675 10.75 8.1875 C-1.10313949 8.51240839 -12.8173856 8.82590867 -24.25 5.1875 C-24.58 4.5275 -24.91 3.8675 -25.25 3.1875 C-16.68133906 0.60934455 -8.92227074 -0.20541237 0 0 Z " fill="#D7D8D8" transform="translate(199.25,148.8125)"/>
<path d="M0 0 C0.66 0.66 1.32 1.32 2 2 C-0.97 4.97 -3.94 7.94 -7 11 C-7.33 10.01 -7.66 9.02 -8 8 C-5.36 5.36 -2.72 2.72 0 0 Z " fill="#2C2A2B" transform="translate(157,99)"/>
<path d="M0 0 C2.875 -0.125 2.875 -0.125 6 0 C6.66 0.66 7.32 1.32 8 2 C4.86501708 3.85776765 2.62528568 4.20140476 -1 4 C-0.67 2.68 -0.34 1.36 0 0 Z " fill="#CFD1D0" transform="translate(222,151)"/>
<path d="M0 0 C0 3 0 3 -1.96875 5.26171875 C-2.8040625 6.06222656 -3.639375 6.86273438 -4.5 7.6875 C-5.3353125 8.49574219 -6.170625 9.30398437 -7.03125 10.13671875 C-7.6809375 10.75160156 -8.330625 11.36648437 -9 12 C-9.66 11.67 -10.32 11.34 -11 11 C-7.6189962 6.86378916 -4.33409466 3.18683431 0 0 Z " fill="#CDCFCE" transform="translate(167,107)"/>
</svg>
